<svg width="25" height="24" viewBox="0 0 25 24" fill="none" xmlns="http://www.w3.org/2000/svg">
<path d="M7.2915 5.75C6.86442 5.75 6.51025 5.41 6.51025 5V2C6.51025 1.59 6.86442 1.25 7.2915 1.25C7.71859 1.25 8.07275 1.59 8.07275 2V5C8.07275 5.41 7.71859 5.75 7.2915 5.75Z" fill="#1E40AF"/>
<path d="M15.625 5.75C15.1979 5.75 14.8438 5.41 14.8438 5V2C14.8438 1.59 15.1979 1.25 15.625 1.25C16.0521 1.25 16.4062 1.59 16.4062 2V5C16.4062 5.41 16.0521 5.75 15.625 5.75Z" fill="#1E40AF"/>
<path opacity="0.4" d="M20.8335 8.5V17C20.8335 20 19.271 22 15.6252 22H7.29183C3.646 22 2.0835 20 2.0835 17V8.5C2.0835 5.5 3.646 3.5 7.29183 3.5H15.6252C19.271 3.5 20.8335 5.5 20.8335 8.5Z" fill="#1E40AF"/>
<path d="M13.5415 11.75H7.2915C6.86442 11.75 6.51025 11.41 6.51025 11C6.51025 10.59 6.86442 10.25 7.2915 10.25H13.5415C13.9686 10.25 14.3228 10.59 14.3228 11C14.3228 11.41 13.9686 11.75 13.5415 11.75Z" fill="#1E40AF"/>
<path d="M10.4165 16.75H7.2915C6.86442 16.75 6.51025 16.41 6.51025 16C6.51025 15.59 6.86442 15.25 7.2915 15.25H10.4165C10.8436 15.25 11.1978 15.59 11.1978 16C11.1978 16.41 10.8436 16.75 10.4165 16.75Z" fill="#1E40AF"/>
<path d="M21.8752 13.63C20.9481 12.92 19.771 12.5 18.4897 12.5C17.2085 12.5 16.0106 12.93 15.0731 13.66C13.8127 14.61 13.021 16.1 13.021 17.75C13.021 18.73 13.3127 19.67 13.8127 20.45C14.1981 21.06 14.6981 21.59 15.2918 22C16.1877 22.63 17.2918 23 18.4897 23C19.8752 23 21.1252 22.51 22.0835 21.69C22.5106 21.35 22.8752 20.93 23.1668 20.45C23.6668 19.67 23.9585 18.73 23.9585 17.75C23.9585 16.08 23.146 14.59 21.8752 13.63ZM18.4897 20.25C18.4897 18.87 17.3231 17.75 15.8856 17.75C17.3231 17.75 18.4897 16.63 18.4897 15.25C18.4897 16.63 19.6564 17.75 21.0939 17.75C19.6564 17.75 18.4897 18.87 18.4897 20.25Z" fill="#1E40AF"/>
</svg>
